<svg width="100" height="100" viewBox="0 0 100 100" fill="none" xmlns="http://www.w3.org/2000/svg">
<g clip-path="url(#clip0_2_805)">
<path fill-rule="evenodd" clip-rule="evenodd" d="M30.2735 33.5171C37.8312 33.5228 43.9523 39.5952 43.9465 47.0809C43.9408 54.5666 37.81 60.6295 30.2523 60.6238C22.6946 60.618 16.5735 54.5457 16.5792 47.06C16.585 39.5742 22.7158 33.5114 30.2735 33.5171" fill="#F9C900"/>
<path fill-rule="evenodd" clip-rule="evenodd" d="M27.0108 65.1471C27.0108 65.311 26.9896 65.4748 26.9454 65.6405L24.6742 74.0081C24.3992 75.0214 23.3473 75.6214 22.3242 75.349C21.2992 75.0767 20.6935 74.0348 20.9685 73.0214L23.2396 64.6538C23.5146 63.6405 24.5665 63.0405 25.5896 63.311C26.4473 63.5395 27.0108 64.309 27.0108 65.1471" fill="#F9C900"/>
<path fill-rule="evenodd" clip-rule="evenodd" d="M17.5054 61.7119C17.5054 62.2243 17.2977 62.7348 16.8862 63.1081L10.4535 68.9805C9.67462 69.6909 8.46115 69.6414 7.74385 68.87C7.02461 68.0986 7.07462 66.8967 7.85346 66.1843L14.2862 60.3138C15.0669 59.6033 16.2804 59.6509 16.9977 60.4243C17.3381 60.7881 17.5054 61.2509 17.5054 61.7119" fill="#F9C900"/>
<mask id="mask0_2_805" style="mask-type:luminance" maskUnits="userSpaceOnUse" x="0" y="50" width="13" height="7">
<path fill-rule="evenodd" clip-rule="evenodd" d="M0 50.583V56.5527H12.3067V50.583L0 50.583L0 50.583Z" fill="white"/>
</mask>
<g mask="url(#mask0_2_805)">
<path fill-rule="evenodd" clip-rule="evenodd" d="M12.3067 52.486C12.3067 53.3317 11.7317 54.1012 10.8683 54.3222L2.39904 56.4917C1.37404 56.7546 0.325961 56.1432 0.060576 55.1279C-0.202886 54.1127 0.412499 53.0746 1.43942 52.8117L9.90865 50.6441C10.9337 50.3812 11.9798 50.9908 12.2452 52.0079C12.2875 52.1679 12.3067 52.3279 12.3067 52.486" fill="#F9C900"/>
</g>
<path fill-rule="evenodd" clip-rule="evenodd" d="M12.576 41.8407C12.576 41.9969 12.5567 42.155 12.5144 42.315C12.251 43.3303 11.2048 43.9417 10.1798 43.6807L1.70673 41.5207C0.681733 41.2598 0.064425 40.2217 0.327886 39.2064C0.591348 38.1912 1.6375 37.5798 2.66442 37.8407L11.1356 40.0007C12.001 40.2217 12.576 40.9931 12.576 41.8407" fill="#F9C900"/>
<path fill-rule="evenodd" clip-rule="evenodd" d="M17.4581 32.5882C17.4581 33.0644 17.2792 33.5406 16.9177 33.9082C16.1812 34.6625 14.9658 34.6816 14.2042 33.952L7.92154 27.9235C7.16 27.194 7.14077 25.992 7.87731 25.2378C8.61385 24.4835 9.82923 24.4644 10.5908 25.194L16.8735 31.2206C17.2638 31.594 17.4581 32.0911 17.4581 32.5882" fill="#F9C900"/>
<path fill-rule="evenodd" clip-rule="evenodd" d="M26.3706 27.3052C26.3706 28.1547 25.7898 28.9281 24.9206 29.1452C23.8937 29.4023 22.8494 28.7852 22.5917 27.7662L20.4533 19.3642C20.1956 18.3452 20.8187 17.3147 21.8456 17.0576C22.8725 16.8023 23.9167 17.4195 24.1744 18.4366L26.3129 26.8385C26.3513 26.9947 26.3706 27.1509 26.3706 27.3052" fill="#F9C900"/>
<path fill-rule="evenodd" clip-rule="evenodd" d="M39.2137 19.5222C39.2137 19.6822 39.1925 19.8441 39.1502 20.006L36.9271 28.3851C36.6579 29.4003 35.6079 30.006 34.5829 29.7394C33.5598 29.4727 32.9463 28.4327 33.2156 27.4194L35.4387 19.0384C35.7079 18.0251 36.7579 17.4174 37.7829 17.6841C38.6444 17.9089 39.2137 18.6784 39.2137 19.5222" fill="#F9C900"/>
<path fill-rule="evenodd" clip-rule="evenodd" d="M53.1248 26.7572C53.1248 27.2868 52.9017 27.8144 52.4652 28.1896L45.8652 33.8772C45.0671 34.5649 43.8537 34.4811 43.1594 33.6906C42.4633 32.8982 42.5479 31.6982 43.3479 31.0087L49.9479 25.323C50.746 24.6334 51.9575 24.7172 52.6537 25.5096C52.971 25.8696 53.1248 26.3153 53.1248 26.7572" fill="#F9C900"/>
<path fill-rule="evenodd" clip-rule="evenodd" d="M59.9267 39.4384C59.9267 40.2727 59.3671 41.0365 58.5152 41.2689L50.0806 43.5603C49.0575 43.8384 48.0017 43.2441 47.7229 42.2308C47.4421 41.2174 48.0421 40.1736 49.0652 39.8955L57.4998 37.6041C58.5229 37.326 59.5767 37.9203 59.8575 38.9336C59.9037 39.1012 59.9267 39.2708 59.9267 39.4384" fill="#F9C900"/>
<path fill-rule="evenodd" clip-rule="evenodd" d="M59.7817 54.2526C59.7817 54.4088 59.7625 54.5669 59.7202 54.7269C59.4567 55.7421 58.4106 56.3535 57.3856 56.0926L48.9125 53.9326C47.8875 53.6716 47.2683 52.6355 47.5337 51.6183C47.7971 50.6031 48.8433 49.9916 49.8702 50.2526L58.3413 52.4126C59.2067 52.6335 59.7817 53.405 59.7817 54.2526" fill="#F9C900"/>
<path fill-rule="evenodd" clip-rule="evenodd" d="M52.6179 67.2996C52.6179 67.793 52.4256 68.2844 52.041 68.6558C51.2833 69.3911 50.0679 69.3777 49.3275 68.6273L43.2121 62.4311C42.4717 61.6806 42.4852 60.4787 43.2429 59.7454C44.0006 59.0101 45.216 59.0235 45.9563 59.7739L52.0717 65.9701C52.4371 66.3396 52.6179 66.8196 52.6179 67.2996" fill="#F9C900"/>
<path fill-rule="evenodd" clip-rule="evenodd" d="M39.4106 74.3068C39.4106 75.1449 38.8471 75.9106 37.9913 76.1392C36.9683 76.4116 35.9144 75.8116 35.6394 74.7982L33.3625 66.4325C33.0875 65.4192 33.6933 64.3773 34.7163 64.103C35.7394 63.8306 36.7933 64.4306 37.0683 65.444L39.3433 73.8097C39.3894 73.9754 39.4106 74.143 39.4106 74.3068" fill="#F9C900"/>
<mask id="mask1_2_805" style="mask-type:luminance" maskUnits="userSpaceOnUse" x="33" y="31" width="67" height="39">
<path fill-rule="evenodd" clip-rule="evenodd" d="M99.3442 69.7372V31.8782H33.024V69.7372H99.3442V69.7372Z" fill="white"/>
</mask>
<g mask="url(#mask1_2_805)">
<path fill-rule="evenodd" clip-rule="evenodd" d="M89.301 49.5734C94.8394 49.5734 99.3452 54.0953 99.3452 59.6572C99.3452 65.2153 94.8394 69.7372 89.301 69.7372H45.6298C38.6798 69.7372 33.024 64.0591 33.024 57.0801C33.024 50.101 38.6798 44.4229 45.6298 44.4229C46.924 44.4229 48.2106 44.6229 49.449 45.0172L50.2587 45.2744L50.5433 44.4725C53.2125 36.9391 60.3452 31.8782 68.2913 31.8782C78.0067 31.8782 86.0702 39.1848 87.049 48.8763L87.1394 49.7734L88.0317 49.6629C88.524 49.602 88.9279 49.5734 89.301 49.5734" fill="#BAC6D1"/>
</g>
<mask id="mask2_2_805" style="mask-type:luminance" maskUnits="userSpaceOnUse" x="6" y="40" width="74" height="43">
<path fill-rule="evenodd" clip-rule="evenodd" d="M6.62865 82.2622H79.896V40.5811H6.62865V82.2622V82.2622Z" fill="white"/>
</mask>
<g mask="url(#mask2_2_805)">
<path fill-rule="evenodd" clip-rule="evenodd" d="M17.7248 60.063C11.6075 60.063 6.62865 65.042 6.62865 71.1639C6.62865 77.282 11.6075 82.263 17.7248 82.263H65.969C73.6498 82.263 79.896 76.0115 79.896 68.3277C79.896 60.6439 73.6498 54.3925 65.969 54.3925C64.5402 54.3925 63.119 54.6134 61.7498 55.0458L60.8575 55.3296L60.5421 54.4458C57.594 46.1525 49.7133 40.5811 40.9344 40.5811C30.2017 40.5811 21.294 48.6268 20.2133 59.2953L20.1133 60.2839L19.1287 60.162C18.5825 60.0934 18.1363 60.063 17.7248 60.063" fill="#D6E3F2"/>
</g>
</g>
<defs>
<clipPath id="clip0_2_805">
<rect width="100" height="66" fill="white" transform="translate(0 17)"/>
</clipPath>
</defs>
</svg>
