<svg width="100" height="100" viewBox="0 0 100 100" fill="none" xmlns="http://www.w3.org/2000/svg">
<g clip-path="url(#clip0_2_658)">
<path fill-rule="evenodd" clip-rule="evenodd" d="M88.6201 42.0379C94.557 42.0379 99.3869 46.906 99.3869 52.8937C99.3869 58.8773 94.557 63.7454 88.6201 63.7454H41.8071C34.357 63.7454 28.2944 57.6326 28.2944 50.1193C28.2944 42.6059 34.357 36.4932 41.8071 36.4932C43.1944 36.4932 44.5735 36.7085 45.9011 37.1329L46.7689 37.4098L47.074 36.5465C49.9353 28.4364 57.5811 22.988 66.0989 22.988C76.5133 22.988 85.1569 30.8541 86.2061 41.2874L86.303 42.2532L87.2595 42.1343C87.7873 42.0687 88.2202 42.0379 88.6201 42.0379" fill="#BAC6D1"/>
<path fill-rule="evenodd" clip-rule="evenodd" d="M11.8942 53.3305C5.33683 53.3305 -0.000213623 58.6907 -0.000213623 65.2813C-0.000213623 71.8678 5.33683 77.23 11.8942 77.23H63.6094C71.8427 77.23 78.5382 70.5 78.5382 62.228C78.5382 53.9559 71.8427 47.2259 63.6094 47.2259C62.0777 47.2259 60.5543 47.4638 59.0866 47.9293L58.1301 48.2348L57.792 47.2834C54.6318 38.3551 46.1841 32.3572 36.7736 32.3572C25.2688 32.3572 15.7203 41.0188 14.5617 52.5041L14.4545 53.5684L13.3991 53.4372C12.8136 53.3633 12.3354 53.3305 11.8942 53.3305" fill="#D6E3F2"/>
</g>
<defs>
<clipPath id="clip0_2_658">
<rect width="100" height="56" fill="white" transform="translate(0 22)"/>
</clipPath>
</defs>
</svg>
