<svg width="100" height="100" viewBox="0 0 100 100" fill="none" xmlns="http://www.w3.org/2000/svg">
<path fill-rule="evenodd" clip-rule="evenodd" d="M20.6477 48.3272C13.675 48.3272 8 54.0334 8 61.0494C8 68.061 13.675 73.7694 20.6477 73.7694H75.6375C84.3923 73.7694 91.5118 66.605 91.5118 57.799C91.5118 48.993 84.3923 41.8286 75.6375 41.8286C74.0089 41.8286 72.389 42.0818 70.8284 42.5773L69.8113 42.9026L69.4518 41.8897C66.0915 32.3851 57.1088 26 47.1025 26C34.8691 26 24.7159 35.2208 23.4841 47.4475L23.3701 48.5804L22.2478 48.4407C21.6253 48.3621 21.1167 48.3272 20.6477 48.3272" fill="#C9C9C9"/>
<path fill-rule="evenodd" clip-rule="evenodd" d="M38.7327 46.2072H49.0674L48.5219 44.6676C47.5359 41.8845 46.6409 39.3625 46.3587 38.5728C45.8885 37.2545 45.8697 36.2291 46.307 35.6114C46.6644 35.1051 47.2318 35 47.3635 35H50.4923C52.4533 35 53.6509 36.9854 54.0788 38.6843C54.2121 39.2144 54.3673 39.8242 54.5365 40.4914C55.2184 43.1725 56.1527 46.8457 56.8016 49.7099C57.2609 51.7368 56.8079 52.5854 56.5916 52.8561C56.3909 53.1076 56.1119 53.2286 55.7373 53.2286H44.9824L48.7477 64.1317C48.9216 64.6332 48.895 64.9103 48.8636 64.9979C48.721 65.0185 48.2084 64.8991 47.746 64.2257C45.5562 61.0334 40.0369 52.778 37.6276 49.019C37.0445 48.1082 36.8595 47.3583 37.1072 46.9062C37.3329 46.4954 38.0007 46.2072 38.7327 46.2072" fill="white"/>
</svg>
